<?xml version="1.0" encoding="UTF-8" standalone="no"?>
<!-- Created with Inkscape (http://www.inkscape.org/) -->

<svg
   xmlns:dc="http://purl.org/dc/elements/1.1/"
   xmlns:cc="http://creativecommons.org/ns#"
   xmlns:rdf="http://www.w3.org/1999/02/22-rdf-syntax-ns#"
   xmlns:svg="http://www.w3.org/2000/svg"
   xmlns="http://www.w3.org/2000/svg"
   xmlns:sodipodi="http://sodipodi.sourceforge.net/DTD/sodipodi-0.dtd"
   xmlns:inkscape="http://www.inkscape.org/namespaces/inkscape"
   version="1.1"
   id="svg966"
   xml:space="preserve"
   width="124.31323"
   height="196.60976"
   viewBox="0 0 124.31323 196.60976"
   sodipodi:docname="LogoMano.svg"
   inkscape:version="0.92.2 (5c3e80d, 2017-08-06)"><metadata
     id="metadata972"><rdf:RDF><cc:Work
         rdf:about=""><dc:format>image/svg+xml</dc:format><dc:type
           rdf:resource="http://purl.org/dc/dcmitype/StillImage" /><dc:title></dc:title></cc:Work></rdf:RDF></metadata><defs
     id="defs970" /><sodipodi:namedview
     pagecolor="#ffffff"
     bordercolor="#666666"
     borderopacity="1"
     objecttolerance="10"
     gridtolerance="10"
     guidetolerance="10"
     inkscape:pageopacity="0"
     inkscape:pageshadow="2"
     inkscape:window-width="1600"
     inkscape:window-height="837"
     id="namedview968"
     showgrid="false"
     inkscape:zoom="2.7023002"
     inkscape:cx="-6.2347997"
     inkscape:cy="112.29816"
     inkscape:window-x="-4"
     inkscape:window-y="-4"
     inkscape:window-maximized="1"
     inkscape:current-layer="g974" /><g
     id="g974"
     inkscape:groupmode="layer"
     inkscape:label="LogoMano"
     transform="matrix(1.3333333,0,0,-1.3333333,0,196.60976)"><path
       inkscape:connector-curvature="0"
       id="path978"
       style="fill:#ffdb00;fill-opacity:1;fill-rule:nonzero;stroke:none"
       d="m 26.246,66.172 c 0,0 -2.808,-3 -1.723,-4.195 1.075,-1.199 2.372,-3.406 2.372,-3.406 0,0 1.726,0.601 1.074,4.004 -0.641,3.398 -0.856,4.601 -1.723,3.597 M 39,84.578 c -1.047,-4.5 -3.25,-5.8 -3.676,-6.601 -0.441,-0.801 1.516,-1.602 4.106,-3.402 2.59,-1.797 2.152,-2.797 0.211,-4.2 -1.938,-1.398 -4.965,-8.398 -4.965,-11.004 0,-2.597 1.515,-3.203 3.672,-7.004 2.156,-3.796 0.867,-9.597 0,-11.601 -0.868,-2.004 -0.868,-4.402 0.211,-5.801 1.082,-1.394 1.734,-3.996 1.519,-6.199 -0.215,-2.199 -0.437,-9.836 -0.437,-9.836 h -4.106 c 0.215,1.195 0,6.238 0,10.637 0,4.406 0.434,13.394 -0.652,13.203 -1.07,-0.199 -3.453,-8.606 -4.32,-12.203 -0.856,-3.602 -1.137,-11.93 -1.137,-11.93 l -3.422,0.047 c -1.078,3.004 0.027,22.883 0.891,29.687 0.855,6.801 -3.457,8.801 -5.184,11.204 -1.731,2.402 -1.086,6.199 0,10 1.078,3.8 3.887,5 5.402,5.199 1.508,0.199 3.239,1.601 3.668,2.804 0.438,1.2 -1.074,3.399 -0.648,6.598 0.301,2.195 3.246,4.602 6.058,4.203 0,0 3.45,-1.004 2.809,-3.801" /><path
       inkscape:connector-curvature="0"
       id="path980"
       style="fill:#004494;fill-opacity:1;fill-rule:nonzero;stroke:none"
       d="m 57.289,56.977 -2.156,-1.805 c 0,0 -2.817,7.801 -0.223,8.403 1.047,0.234 1.942,-1.407 2.598,-2.801 0.637,-1.403 1.726,-1.801 -0.219,-3.797 M 42.02,55.172 39.859,56.977 c -1.945,1.996 -0.859,2.394 -0.218,3.797 0.652,1.394 1.547,3.035 2.597,2.801 2.594,-0.602 -0.218,-8.403 -0.218,-8.403 M 57.508,66.77 c -1.621,2.984 -4.16,3.707 -5.203,3.957 -0.039,0.015 -0.082,0.035 -0.125,0.051 -2.16,0.797 -2.16,0.797 -2.16,2 0,1.195 2.812,1.996 2.593,5.199 -0.222,3.199 -1.519,4.199 -3.461,4.398 -1.933,0.2 -4.539,-0.996 -5.398,-4 -0.867,-2.996 1.305,-3.808 2.367,-4.793 0.867,-0.804 -0.203,-2.609 -1.074,-2.804 -0.867,-0.203 -3.672,-0.805 -5.406,-4.008 -1.727,-3.195 -3.672,-6.594 -3.239,-8.602 0.438,-2 4.754,-5.398 5.618,-6.605 0.867,-1.192 0.437,-4.797 -0.645,-8.192 -1.082,-3.402 -3.027,-5.601 -1.297,-7.007 1.723,-1.399 3.461,-2.793 3.027,-5.2 C 42.672,28.766 42.43,19.637 43.074,18.637 l 2.864,0.094 c 0,0 0.617,8.035 0.617,9.832 0,1.801 -0.637,5.601 1.523,5.41 2.156,-0.203 1.074,-3.41 1.074,-5.207 0,-1.801 -0.089,-9.336 1.641,-9.938 l 1.926,0.239 1.183,0.109 c 0.649,1 0.575,9.59 0.141,11.988 0,0 -0.336,2.723 0.523,4.286 l -1.093,1.312 c 0,0 -2.125,2.457 -1.157,4.363 0,0 0.739,1.543 0.778,1.867 0,0 0.543,1.762 0.734,2.657 0,0 0.348,1.976 3.418,3.379 0,0 -1.148,3.257 -0.937,3.515 0.949,1.153 4,3.625 4.433,5.625 0.438,2.008 -1.508,5.407 -3.234,8.602" /><path
       inkscape:connector-curvature="0"
       id="path982"
       style="fill:#ff4338;fill-opacity:1;fill-rule:nonzero;stroke:none"
       d="m 57.563,42.02 c -0.512,0 -1.024,-0.664 -1.125,-1.235 -0.102,-0.566 -0.711,-1.796 -0.2,-2.453 0.512,-0.66 0.535,-0.832 1.422,-1.035 0.406,-0.101 0.613,4.723 -0.097,4.723 m 5.101,9.344 c -0.125,-1.977 -1.121,-1.887 -1.226,-2.645 -0.102,-0.758 0.203,-1.227 1.019,-1.227 0.813,0 2.348,0 3.16,-2.554 0.817,-2.547 0.41,-5.664 -0.508,-7.453 -0.914,-1.797 -0.914,-2.649 -0.504,-5.196 0.403,-2.55 0.813,-5.668 0.504,-6.988 -0.304,-1.32 0.114,-3.656 0.114,-3.656 l -2.34,-0.754 c -0.414,0.098 -0.219,2.527 -0.426,4.316 -0.199,1.797 -0.199,5.375 -1.019,5.375 -0.817,0 -1.125,-5.09 -1.536,-7.164 -0.402,-2.082 0.438,-3.14 0.438,-3.14 l -2.969,-0.426 c 0,0 0.09,0.914 0.09,2.711 0,1.793 0.312,7.09 0.605,8.972 0.309,1.887 -2.035,4.528 -2.949,5.661 -0.926,1.136 -1.023,2.453 -0.617,3.218 0.406,0.75 0.918,2.641 1.227,4.149 0.304,1.512 2.339,2.359 2.957,2.929 0.617,0.567 -0.211,1.887 -0.411,3.403 -0.207,1.508 1.747,2.695 2.86,2.547 0.711,-0.09 1.633,-0.477 1.531,-2.078" /><path
       inkscape:connector-curvature="0"
       id="path984"
       style="fill:#004494;fill-opacity:1;fill-rule:nonzero;stroke:none"
       d="M 76.531,93.543 V 87.59 c -4.551,0.563 -3.289,10.715 -3.289,10.715 3.571,-1.473 3.289,-4.762 3.289,-4.762 m -3.781,7.91 c 0,0 -2.66,0.629 -5.879,-1.609 v 30.176 c 0,0 0.422,7.648 -7.211,8.332 0,0 -2.73,0.488 -5.531,-1.75 v 1.961 c 0,0 0.371,8.453 -8.332,8.89 0,0 -8.059,0.473 -8.891,-8.402 v -2.309 c 0,0 -2.312,2.52 -6.511,2.032 0,0 -7.567,-0.461 -7.774,-8.895 v -4.199 c 0,0 -2.027,2.309 -6.508,2.172 0,0 -8.539,-0.477 -8.543,-9.102 V 40.196 c 0,0 -0.675,-11.063 8.469,-11.063 v 2.938 c 0,0 -5.23,-0.633 -5.527,6.652 v 80.305 c 0,0 0.054,5.851 6.508,5.742 0,0 5.531,-0.141 5.531,-5.602 V 88.082 h 3.152 v 42.356 c 0,0 0.281,5.461 5.813,5.461 0,0 5.425,0.031 5.32,-5.391 V 94.172 h 3.008 V 138.7 c 0,0 -0.102,5.593 5.883,5.742 0,0 5.32,0.14 5.32,-5.391 l 0.211,-50.898 h 3.012 v 41.656 c 0,0 -0.422,5.461 4.968,5.461 0,0 4.621,0.07 4.621,-5.11 V 78.282 h 2.871 v 14.91 c 0,0 -0.281,3.711 3.5,5.113 0,0 -1.96,-13.023 6.372,-13.723 V 40.125 c 0,0 0.261,-6.797 -5.25,-7.074 v -3.148 c 0,0 8.296,-0.45 8.261,10.359 v 53.352 c 0,0 0.071,6.648 -6.863,7.839" /><path
       inkscape:connector-curvature="0"
       id="path986"
       style="fill:#257440;fill-opacity:1;fill-rule:nonzero;stroke:none"
       d="M 88.941,8.047 C 84.84,1.055 71.219,3.348 71.219,3.348 65.453,4.414 56.699,4.309 56.699,4.309 H 43.992 c 0.387,3.785 -0.535,5.34 -0.535,5.34 -1.707,3.203 -7.473,2.562 -7.473,2.562 4.164,1.817 10.786,2.133 10.786,2.133 l 8.039,0.465 c 11.296,0.953 15.5,3.586 15.5,3.586 l 5.328,3.004 C 81.977,25.192 86.379,21.18 86.379,21.18 93.211,15.094 88.941,8.047 88.941,8.047 M 40.895,4.414 h -8.969 c 0,0 -2.5,3.391 1.711,4.594 0,0 2.668,0.856 5.976,0 0,0 2.442,-0.656 1.282,-4.594 m -12.278,0 H 8.223 C 2.992,4.203 2.992,8.793 2.992,8.793 c 0.184,4.082 4.805,3.953 4.805,3.953 l 24.449,0.957 C 25.949,9.219 28.617,4.414 28.617,4.414 M 87.66,24.063 c 0,0 -5.984,4.554 -13.41,0.113 l -4.781,-2.875 c 0,0 -5.555,-3.777 -22.274,-4.074 L 7.477,15.84 c 0,0 -7.305,0.067 -7.473,-6.621 0,0 -0.426,-7.793 8.008,-7.898 l 42.601,0.105 c 0,0 7.153,0.426 20.391,-0.961 0,0 18.746,-3.672 21.887,9.61 0,0 2.347,7.964 -5.231,13.988" /></g></svg>